<?xml version="1.0" standalone="no"?>
<!DOCTYPE svg PUBLIC "-//W3C//DTD SVG 20010904//EN"
 "http://www.w3.org/TR/2001/REC-SVG-20010904/DTD/svg10.dtd">
<svg version="1.0" xmlns="http://www.w3.org/2000/svg"
 width="500.000000pt" height="500.000000pt" viewBox="0 0 500.000000 500.000000"
 preserveAspectRatio="xMidYMid meet">

<g transform="translate(0.000000,500.000000) scale(0.100000,-0.100000)"
fill="#000000" stroke="none">
<path d="M2413 4124 c-52 -26 -109 -95 -159 -195 -56 -112 -91 -243 -100 -378
-4 -65 -12 -105 -20 -112 -8 -6 -14 -20 -14 -30 0 -10 -8 -23 -17 -28 -10 -6
-13 -10 -8 -10 17 0 42 23 38 36 -2 6 1 14 6 18 6 3 11 0 12 -7 0 -21 10 -96
23 -190 l13 -87 -124 -107 c-190 -165 -281 -272 -353 -415 -56 -110 -74 -185
-74 -309 0 -122 18 -199 72 -310 51 -107 176 -231 289 -287 109 -55 212 -78
312 -69 l77 6 18 -142 c30 -233 30 -242 12 -257 -14 -12 -15 -16 -2 -30 11
-13 12 -24 1 -64 -19 -73 -61 -128 -125 -160 -49 -25 -63 -28 -135 -25 -57 2
-92 9 -119 24 -47 24 -58 44 -23 44 124 0 202 126 152 246 -8 20 -12 40 -9 45
3 5 2 8 -3 7 -4 -2 -24 9 -44 25 -20 15 -41 27 -48 27 -8 0 -7 7 3 22 9 12 16
28 16 35 0 22 -39 14 -66 -12 -16 -16 -36 -25 -55 -25 -41 0 -69 -17 -69 -41
0 -11 -6 -22 -14 -25 -28 -11 -56 -90 -56 -157 0 -109 61 -206 160 -257 124
-63 326 -33 422 63 57 57 79 114 88 229 5 56 4 111 0 122 -9 21 -53 318 -48
320 2 1 35 17 73 36 197 97 289 302 241 532 -42 194 -180 322 -363 335 -40 3
-73 6 -74 7 0 1 -10 75 -22 165 l-22 163 105 107 c152 153 208 258 236 443 21
136 14 341 -15 451 -33 124 -102 238 -145 237 -6 0 -26 -8 -43 -16z m67 -271
c0 -15 -80 -154 -109 -191 -16 -20 -31 -46 -33 -56 -1 -11 -6 -18 -9 -15 -12
8 -47 -32 -52 -59 -4 -24 0 -22 39 22 24 28 41 52 39 54 -3 3 9 21 26 40 17
20 49 71 70 115 21 44 40 82 43 84 2 3 13 0 24 -6 76 -41 44 -265 -63 -425
-42 -64 -194 -226 -211 -226 -24 0 -33 215 -12 285 6 22 11 44 9 49 -8 34 83
225 132 276 39 40 107 74 107 53z m-170 -298 c-7 -9 -15 -13 -18 -10 -3 2 1
11 8 20 7 9 15 13 18 10 3 -2 -1 -11 -8 -20z m-67 -842 c10 -76 17 -143 17
-150 0 -6 -14 -14 -30 -18 -41 -9 -141 -86 -174 -134 -105 -151 -102 -350 8
-469 38 -42 103 -81 135 -82 8 0 -8 24 -36 53 -27 28 -58 73 -67 99 -47 122
26 279 149 321 42 15 43 15 48 -6 15 -65 80 -608 73 -614 -4 -5 -62 -8 -129
-8 -120 0 -123 1 -200 37 -189 90 -303 282 -282 472 16 138 79 265 196 390 79
84 254 246 267 246 4 0 16 -62 25 -137z m203 -384 c68 -26 130 -84 163 -154
19 -39 24 -68 25 -130 1 -102 -23 -173 -77 -233 -37 -39 -113 -89 -122 -80 -4
3 -85 590 -85 610 0 14 37 9 96 -13z m-376 -889 c0 -10 -32 -30 -49 -30 -19 0
-12 17 12 28 28 14 37 14 37 2z"/>
<path d="M2012 3314 c-27 -18 -28 -37 -4 -55 15 -13 16 -12 3 4 -12 15 -11 21
9 42 27 29 24 32 -8 9z"/>
<path d="M4328 3230 c4 -27 8 -30 43 -30 37 0 39 2 39 30 0 29 -2 30 -43 30
-43 0 -43 -1 -39 -30z"/>
<path d="M1910 3226 c-9 -11 -9 -19 0 -33 7 -11 10 -12 7 -3 -2 8 2 23 11 33
8 9 10 17 5 17 -6 0 -16 -7 -23 -14z"/>
<path d="M3036 3138 c-3 -46 -7 -149 -10 -230 l-5 -148 40 0 39 0 1 193 1 192
46 -138 47 -138 40 3 40 3 45 135 45 135 3 -192 2 -193 35 0 35 0 0 103 c0 56
-3 159 -7 230 l-6 127 -53 0 -52 0 -22 -72 c-11 -40 -31 -104 -44 -143 l-23
-70 -44 140 -45 140 -51 3 -51 3 -6 -83z"/>
<path d="M1817 3182 c-10 -10 -17 -24 -17 -32 0 -7 10 -1 21 14 24 31 21 45
-4 18z"/>
<path d="M4040 3150 c-50 -12 -80 -51 -80 -104 0 -61 26 -90 105 -116 71 -24
95 -41 95 -70 0 -48 -52 -62 -134 -34 -26 9 -49 14 -52 11 -3 -2 -6 -17 -7
-33 -2 -24 3 -29 38 -40 56 -17 131 -17 165 1 38 19 60 63 60 115 0 53 -29 83
-101 104 -66 20 -99 41 -99 65 0 34 25 43 102 40 73 -4 73 -4 76 23 3 24 -1
27 -35 33 -76 12 -99 13 -133 5z"/>
<path d="M4647 3150 c-89 -17 -127 -75 -127 -195 0 -99 26 -158 80 -187 62
-33 192 -15 198 27 5 39 -10 47 -57 30 -92 -32 -133 -9 -145 83 -8 61 9 153
32 170 11 9 41 12 89 10 70 -3 72 -2 77 22 2 14 1 28 -2 31 -12 11 -105 17
-145 9z"/>
<path d="M3567 3143 c-10 -10 -8 -262 3 -308 18 -81 88 -106 180 -64 40 18 46
18 56 5 6 -9 21 -16 33 -16 21 0 21 2 21 196 l0 195 -37 -3 -38 -3 -3 -152 -3
-151 -31 -11 c-46 -16 -95 -14 -102 5 -3 9 -6 83 -6 165 l0 149 -33 0 c-19 0
-37 -3 -40 -7z"/>
<path d="M4330 2956 l0 -196 40 0 40 0 -2 193 -3 192 -37 3 -38 3 0 -195z"/>
<path d="M1735 3107 c-18 -28 -18 -29 4 -50 l22 -22 34 39 c19 21 32 43 28 49
-4 6 -9 2 -14 -9 -4 -10 -18 -30 -33 -43 -22 -21 -26 -22 -32 -7 -3 9 -1 23 6
31 6 8 10 20 8 27 -3 8 -12 2 -23 -15z"/>
<path d="M1682 3003 c-7 -11 -6 -23 2 -36 8 -15 8 -21 -1 -24 -7 -3 -13 -9
-13 -14 0 -5 12 -2 26 8 24 15 25 18 9 29 -13 10 -14 16 -5 33 13 25 -4 29
-18 4z"/>
<path d="M1611 2903 c-11 -24 -10 -29 6 -41 17 -13 17 -14 -1 -28 -25 -18 -16
-18 17 -1 25 13 25 14 5 26 -15 9 -18 19 -13 42 8 36 2 37 -14 2z"/>
<path d="M2656 2838 c-18 -26 -21 -47 -5 -31 6 6 17 9 24 6 21 -7 55 15 49 32
-9 23 -51 18 -68 -7z"/>
<path d="M2420 2796 c-6 -8 -10 -25 -8 -37 3 -21 3 -21 27 -2 16 13 22 26 18
36 -8 21 -21 22 -37 3z"/>
<path d="M2755 2784 c-10 -16 -12 -23 -4 -18 7 4 27 8 44 8 38 1 42 30 4 34
-19 2 -31 -4 -44 -24z"/>
<path d="M2535 2778 c-15 -22 -14 -23 6 -26 25 -4 55 21 45 37 -11 18 -34 13
-51 -11z"/>
<path d="M1450 2739 c-13 -24 -4 -41 10 -19 10 16 13 40 5 40 -2 0 -9 -9 -15
-21z"/>
<path d="M1489 2731 l-24 -19 28 5 c25 5 27 3 26 -28 -2 -31 -2 -31 -6 -6 -2
15 -9 27 -14 27 -6 0 -7 -9 -4 -20 5 -14 2 -20 -9 -20 -9 0 -16 7 -16 15 0 13
-3 13 -14 3 -9 -9 -11 -21 -5 -42 13 -46 26 -53 40 -23 14 31 29 35 29 8 0
-33 11 -51 32 -51 17 0 19 4 14 28 -4 15 -14 32 -22 38 -8 7 -14 28 -14 52 0
50 -10 58 -41 33z m-1 -83 c-6 -18 -28 -21 -28 -4 0 9 7 16 16 16 9 0 14 -5
12 -12z m72 -50 c0 -4 -4 -8 -10 -8 -5 0 -10 4 -10 9 0 5 -3 18 -6 28 -5 16
-4 16 10 -1 9 -11 16 -23 16 -28z"/>
<path d="M2491 2694 c-1 -12 5 -36 13 -54 l13 -33 5 36 c2 19 0 33 -4 31 -5
-3 -12 5 -17 18 -9 22 -10 22 -10 2z"/>
<path d="M2606 2694 c-5 -14 5 -21 61 -38 16 -5 25 -2 33 13 8 16 8 19 -3 15
-7 -2 -29 2 -49 10 -32 14 -37 14 -42 0z"/>
<path d="M2380 2676 c0 -5 11 -21 25 -38 14 -16 25 -23 25 -16 0 8 -11 25 -25
38 -14 13 -25 20 -25 16z"/>
<path d="M2810 2655 c-10 -12 -7 -15 14 -21 29 -7 46 1 46 22 0 19 -44 18 -60
-1z"/>
<path d="M2850 2533 c-59 -62 -60 -63 -8 -14 52 50 58 53 73 37 19 -18 51 -21
60 -5 9 13 -23 49 -44 49 -9 0 -46 -30 -81 -67z m105 37 c3 -5 -1 -10 -9 -10
-8 0 -18 5 -21 10 -3 6 1 10 9 10 8 0 18 -4 21 -10z"/>
<path d="M1460 2516 c0 -13 8 -30 17 -37 15 -12 16 -12 10 4 -4 10 -7 27 -7
38 0 10 -4 19 -10 19 -5 0 -10 -11 -10 -24z"/>
<path d="M3000 2488 c-11 -12 -20 -29 -20 -38 0 -9 -5 -21 -12 -28 -17 -17 -2
-15 26 3 16 11 22 22 19 36 -3 10 0 26 7 34 19 23 3 18 -20 -7z"/>
<path d="M3074 2484 c-10 -8 -14 -13 -7 -9 7 3 21 -3 33 -15 11 -11 25 -20 30
-20 17 0 23 29 10 45 -16 19 -41 19 -66 -1z"/>
<path d="M1520 2463 c14 -7 13 -83 -1 -83 -8 0 -8 -5 1 -15 8 -9 11 -30 7 -55
-3 -22 -1 -40 4 -40 15 0 7 193 -9 196 -7 1 -8 0 -2 -3z"/>
<path d="M1452 2413 c2 -14 8 -28 14 -30 7 -2 9 8 6 27 -5 37 -25 40 -20 3z"/>
<path d="M3072 2344 c4 -24 35 -41 48 -28 8 8 7 16 -5 28 -21 21 -47 21 -43 0z"/>
<path d="M1440 2332 c0 -12 30 -52 40 -52 5 0 2 14 -6 30 -14 28 -34 41 -34
22z"/>
<path d="M3630 2300 c0 -29 2 -30 45 -30 43 0 45 1 45 30 0 29 -2 30 -45 30
-43 0 -45 -1 -45 -30z"/>
<path d="M3840 2086 l0 -244 50 -11 c28 -6 76 -11 106 -11 50 0 60 4 89 33 39
39 55 89 55 172 0 80 -16 132 -51 167 -27 28 -33 29 -101 27 l-73 -2 -3 56 -3
57 -34 0 -35 0 0 -244z m211 53 c16 -30 8 -221 -10 -243 -9 -10 -29 -16 -56
-16 -76 0 -75 -3 -75 136 0 141 1 142 87 143 33 1 45 -4 54 -20z"/>
<path d="M2953 2312 c-10 -7 -10 -16 1 -48 8 -21 17 -51 21 -66 3 -16 12 -28
19 -28 12 0 13 7 6 31 -5 17 -9 34 -8 38 1 3 -3 17 -9 31 -6 14 -12 30 -14 37
-2 7 -9 9 -16 5z"/>
<path d="M3330 2060 l0 -230 120 0 120 0 0 30 0 29 -82 3 -83 3 3 198 3 197
-40 0 -41 0 0 -230z"/>
<path d="M3100 2252 c0 -21 18 -42 37 -42 18 0 16 25 -3 44 -21 21 -34 20 -34
-2z"/>
<path d="M1410 2213 c0 -30 13 -41 49 -45 34 -3 34 -3 16 -22 -18 -17 -18 -18
0 -15 10 2 21 14 26 27 8 20 5 22 -25 22 -28 0 -35 5 -40 25 -7 28 -26 34 -26
8z"/>
<path d="M3647 2214 c-4 -4 -7 -92 -7 -196 l0 -188 40 0 40 0 -2 193 -3 192
-30 3 c-17 2 -34 0 -38 -4z"/>
<path d="M4271 2206 c-32 -18 -50 -53 -51 -97 0 -53 29 -84 105 -109 71 -24
95 -41 95 -70 0 -48 -50 -61 -135 -35 -27 8 -51 13 -52 11 -2 -2 -5 -16 -6
-31 -2 -24 4 -29 38 -42 25 -9 64 -13 103 -11 84 5 113 33 120 112 4 48 1 58
-20 79 -14 14 -49 32 -79 40 -90 27 -123 65 -84 97 14 11 87 10 147 -2 8 -2
14 9 16 28 3 28 0 32 -29 38 -52 10 -142 6 -168 -8z"/>
<path d="M3110 2157 c0 -7 6 -22 14 -33 20 -27 43 -6 27 25 -13 23 -41 29 -41
8z"/>
<path d="M2960 2070 c0 -17 51 -60 72 -60 13 0 20 -9 24 -30 4 -16 17 -41 30
-55 33 -35 72 -33 110 7 l30 32 -18 38 c-15 31 -24 38 -46 38 -17 0 -37 -9
-49 -24 -21 -24 -21 -24 -2 -55 13 -21 23 -29 35 -24 15 5 15 7 0 15 -21 12
-20 25 2 31 16 4 16 5 0 6 -20 1 -24 16 -7 26 16 11 59 -4 59 -19 0 -8 -8 -17
-17 -19 -17 -4 -17 -5 0 -6 23 -1 22 -16 -4 -42 -36 -36 -80 -8 -99 62 -11 39
-54 89 -77 89 -8 0 -3 -10 14 -24 15 -13 25 -28 21 -32 -10 -10 -58 24 -58 41
0 8 -4 15 -10 15 -5 0 -10 -5 -10 -10z"/>
<path d="M1486 2061 c-4 -5 -1 -21 5 -35 9 -18 20 -26 38 -26 23 1 24 2 9 11
-10 5 -18 16 -18 23 0 19 -27 40 -34 27z"/>
<path d="M1568 2013 c7 -3 16 -2 19 1 4 3 -2 6 -13 5 -11 0 -14 -3 -6 -6z"/>
<path d="M3240 1956 c0 -2 7 -9 15 -16 9 -7 15 -8 15 -2 0 5 -7 12 -15 16 -8
3 -15 4 -15 2z"/>
<path d="M1530 1922 c0 -12 7 -25 15 -28 28 -11 32 1 9 26 l-24 25 0 -23z"/>
<path d="M3221 1901 c-8 -14 -7 -22 5 -32 20 -16 38 2 29 30 -8 26 -21 27 -34
2z"/>
<path d="M2915 1851 l-30 -7 35 -17 c19 -10 29 -12 23 -6 -10 10 -9 15 5 25
18 14 13 15 -33 5z"/>
<path d="M1522 1794 c4 -24 32 -39 54 -30 18 8 18 8 -2 16 -12 5 -25 13 -29
19 -10 17 -27 13 -23 -5z"/>
<path d="M1653 1755 c23 -41 24 -46 9 -55 -9 -5 -14 -10 -9 -10 4 0 16 5 26
11 17 11 17 14 -6 55 -14 24 -29 44 -35 44 -5 0 2 -20 15 -45z"/>
<path d="M2982 1773 c-15 -26 4 -59 24 -42 18 15 18 33 0 48 -12 10 -17 9 -24
-6z"/>
<path d="M2853 1733 c15 -15 19 -16 26 -4 5 8 16 11 26 8 9 -4 14 -3 10 3 -3
6 -23 10 -43 10 -35 0 -35 -1 -19 -17z"/>
<path d="M1566 1713 c-3 -4 1 -15 11 -25 17 -20 48 -24 58 -8 3 6 -1 7 -9 4
-9 -4 -18 0 -22 9 -6 17 -29 29 -38 20z"/>
<path d="M2913 1671 c-13 -20 -8 -51 8 -51 17 0 29 37 16 54 -11 15 -13 15
-24 -3z"/>
<path d="M1759 1650 c-15 -12 -18 -19 -9 -18 9 2 14 -4 14 -14 -3 -30 13 -10
18 22 3 16 4 30 2 30 -1 0 -12 -9 -25 -20z"/>
<path d="M1672 1638 c6 -16 36 -34 44 -25 9 9 -15 37 -33 37 -8 0 -13 -5 -11
-12z"/>
<path d="M2797 1605 c-38 -47 -25 -63 16 -19 l32 35 33 -34 c30 -31 32 -38 22
-57 -13 -24 -6 -55 10 -45 5 3 15 15 20 26 9 16 3 28 -41 74 -29 30 -55 55
-58 55 -3 0 -19 -16 -34 -35z"/>
<path d="M1832 1558 c-25 -25 -34 -30 -44 -20 -7 7 -21 12 -32 12 -18 0 -19
-1 -1 -20 24 -26 37 -25 65 5 20 22 25 23 33 10 4 -8 5 -21 1 -28 -4 -7 -3 -8
2 -4 6 6 14 77 9 77 0 0 -15 -14 -33 -32z"/>
<path d="M2660 1520 c0 -5 5 -10 11 -10 5 0 7 5 4 10 -3 6 -8 10 -11 10 -2 0
-4 -4 -4 -10z"/>
<path d="M2822 1490 c10 -15 10 -22 0 -32 -14 -14 -16 -48 -4 -48 5 0 17 9 27
19 16 19 16 21 -5 50 -24 34 -37 42 -18 11z"/>
<path d="M2570 1465 c0 -3 7 -17 16 -31 16 -23 16 -26 -5 -48 -35 -38 -24 -59
20 -36 24 13 24 31 -1 80 -18 36 -30 49 -30 35z m30 -100 c-7 -8 -17 -15 -22
-15 -6 0 -5 7 2 15 7 8 17 15 22 15 6 0 5 -7 -2 -15z"/>
<path d="M2685 1446 c-19 -29 -15 -42 10 -32 20 7 30 35 17 48 -7 7 -15 2 -27
-16z"/>
<path d="M2180 1409 c0 -9 53 -13 119 -9 19 1 37 -4 42 -12 6 -10 9 -8 9 7 0
18 -7 20 -85 21 -47 1 -85 -3 -85 -7z"/>
<path d="M2241 1323 c-1 -6 -11 -13 -23 -15 -28 -4 -36 -28 -10 -28 24 0 46
24 39 42 -4 9 -6 9 -6 1z"/>
<path d="M2293 1295 c-3 -9 -3 -18 0 -21 7 -8 47 15 47 26 0 16 -40 11 -47 -5z"/>
</g>
</svg>
